<svg xmlns="http://www.w3.org/2000/svg" viewBox="0 0 24 24" role="img" aria-label="Snow CLI"><title>Snow CLI</title><path fill="#0891B2" d="M11 2h2v3.3l2.1-2.1 1.4 1.4L13 8.2v3l2.6-1.5 2.6-4.5 1.9 1.1-1.4 2.4 2.8.7-.5 1.9-3.5-.9L14.7 12l2.3 1.6 3.5-.9.5 1.9-2.8.7 1.4 2.4-1.9 1.1-2.6-4.5L13 12.8v3l3.5 3.6-1.4 1.4L13 18.7V22h-2v-3.3l-2.1 2.1-1.4-1.4L11 15.8v-3l-2.6 1.5-2.6 4.5-1.9-1.1 1.4-2.4-2.8-.7.5-1.9 3.5.9L9.3 12 7 10.4l-3.5.9L3 9.4l2.8-.7L4.4 6.3l1.9-1.1 2.6 4.5L11 11.2v-3L7.5 4.6l1.4-1.4L11 5.3Z"/></svg>
